<svg id="booop" xmlns="http://www.w3.org/2000/svg" width="96" height="48" viewBox="0 0 96 48">
  <defs>
    <style>
      .cls-1 {
        fill-rule: evenodd;
      }
    </style>
  </defs>
  <path id="b" class="cls-1"
    d="M11.628,32.45a8.462,8.462,0,0,1-8.463-8.462c0-.04,0-0.079,0-0.118h0V11.188h4.2v5.491A8.463,8.463,0,1,1,11.628,32.45Zm0-12.693a4.231,4.231,0,1,0,4.231,4.231A4.231,4.231,0,0,0,11.628,19.757Z"
    transform="translate(-0.016 0.016)" />
  <path id="o" class="cls-1"
    d="M30.386,15.507a8.467,8.467,0,1,1-8.467,8.467A8.467,8.467,0,0,1,30.386,15.507Zm0,4.234a4.234,4.234,0,1,1-4.234,4.234A4.234,4.234,0,0,1,30.386,19.741Z"
    transform="translate(-0.016 0.016)" />
  <path id="o-2" data-name="o" class="cls-1"
    d="M48.025,15.515a8.467,8.467,0,1,1-8.467,8.467A8.467,8.467,0,0,1,48.025,15.515Zm0,4.234a4.234,4.234,0,1,1-4.234,4.234A4.234,4.234,0,0,1,48.025,19.748Z"
    transform="translate(-0.016 0.016)" />
  <path id="o-3" data-name="o" class="cls-1"
    d="M65.674,15.505a8.467,8.467,0,1,1-8.467,8.467A8.467,8.467,0,0,1,65.674,15.505Zm0,4.234a4.234,4.234,0,1,1-4.234,4.234A4.234,4.234,0,0,1,65.674,19.739Z"
    transform="translate(-0.016 0.016)" />
  <path id="p" class="cls-1"
    d="M84.421,15.526a8.462,8.462,0,0,0-8.463,8.462c0,0.039,0,.079,0,0.118h0V36.788h4.2V31.3A8.463,8.463,0,1,0,84.421,15.526Zm0,12.693a4.231,4.231,0,1,1,4.231-4.231A4.231,4.231,0,0,1,84.421,28.219Z"
    transform="translate(-0.016 0.016)" />
</svg>